<svg width="36" height="35" viewBox="0 0 36 35" fill="none" xmlns="http://www.w3.org/2000/svg">
<path d="M0 4.18561C0 3.01765 0.401194 2.05411 1.20355 1.29498C2.0059 0.535815 3.049 0.15625 4.33277 0.15625C5.59364 0.15625 6.61377 0.529964 7.39322 1.27746C8.19557 2.0483 8.59677 3.05269 8.59677 4.29072C8.59677 5.41193 8.20706 6.34625 7.42761 7.09375C6.62525 7.86458 5.5707 8.25 4.264 8.25H4.22961C2.96874 8.25 1.94861 7.86458 1.16916 7.09375C0.389709 6.32292 0 5.35352 0 4.18561ZM0.447032 34.8438V11.4384H8.08096V34.8438H0.447032ZM12.3106 34.8438H19.9445V21.7746C19.9445 20.957 20.0362 20.3264 20.2196 19.8826C20.5405 19.0884 21.0277 18.4168 21.681 17.8679C22.3344 17.319 23.1539 17.0445 24.1397 17.0445C26.7073 17.0445 27.9911 18.8081 27.9911 22.3352V34.8438H35.625V21.4242C35.625 17.9672 34.8226 15.3452 33.2179 13.5582C31.6132 11.7713 29.4927 10.8778 26.8563 10.8778C23.899 10.8778 21.5951 12.1742 19.9445 14.767V14.8371H19.9101L19.9445 14.767V11.4384H12.3106C12.3564 12.1859 12.3793 14.5101 12.3793 18.411C12.3793 22.3119 12.3564 27.7894 12.3106 34.8438Z" fill="#252839"/>
</svg>
