<svg width="82" height="124" viewBox="0 0 82 124" fill="none" xmlns="http://www.w3.org/2000/svg">
<path d="M42.2883 1.44481C43.4456 3.80667 44.367 6.27703 45.0391 8.81982C46.2621 12.5913 47.8211 17.3648 48.5104 19.4481L49.7551 23.2321H72.5022L73.1992 23.9291C73.5701 24.2401 73.8116 24.6783 73.8766 25.1579C73.9417 25.6376 73.8255 26.1242 73.5509 26.5228C73.358 26.7997 69.1508 29.9613 64.2031 33.5492L55.2069 40.0715L55.8931 42.161C59.691 53.7384 62.1259 61.4433 62.1259 61.882C62.0076 62.3801 61.743 62.8313 61.3662 63.1779C60.9895 63.5245 60.5177 63.7505 60.0115 63.8269C59.4514 63.8269 57.2855 62.3721 50.3198 57.317C45.3954 53.7384 41.2178 50.7558 41.0607 50.6935C40.6048 50.5146 38.5324 52.0939 38.8296 52.3926C38.9743 52.5389 45.2648 57.0276 52.8327 62.3846C61.0478 68.2005 66.6925 72.3547 66.873 72.7126C67.1064 73.1794 67.1733 77.36 67.1733 91.5093V109.706H73.2989C79.7123 109.706 80.5773 109.83 80.957 110.81C81.0394 111.022 81.1125 113.752 81.1125 116.9C81.1125 122.305 81.086 122.638 80.6193 123.242L80.1276 123.878H1.81646L1.22825 123.29L0.640137 122.702L0.652577 116.866C0.660356 112.665 0.747506 110.921 0.963775 110.642C1.62347 109.779 2.20847 109.709 8.43204 109.709H14.5747L14.6354 74.1347L14.6961 38.5607L15.3682 37.9834C16.6129 36.9192 17.1933 37.1309 21.5172 40.2006C22.7861 41.2034 24.1565 42.0706 25.606 42.788C26.01 41.9371 26.3374 41.0519 26.5846 40.143C26.5846 40.1041 22.4772 37.0872 17.4563 33.4418C12.4354 29.7963 8.22053 26.6068 8.08827 26.3563C7.87892 25.9591 7.81103 25.5025 7.89588 25.0616C7.98072 24.6207 8.21322 24.2218 8.55502 23.9306L9.24266 23.2336H32.0863L33.0821 20.1591C38.5713 3.19988 39.1236 1.60663 39.6293 1.25811C40.0361 1.00159 40.5142 0.881713 40.9938 0.915857C41.4735 0.95 41.9298 1.13639 42.2961 1.44794L42.2883 1.44481ZM37.7483 19.4123C37.0512 22.0158 36.1136 24.5487 34.9476 26.9786C34.4901 27.4034 33.8305 27.4454 25.5921 27.5543L16.7235 27.6741L23.5087 32.5985C27.2319 35.2995 30.4838 37.7127 30.7156 37.943C30.9777 38.2621 31.1256 38.6597 31.1357 39.0726C31.1357 39.4631 29.9548 43.4198 28.5062 47.8883C27.0577 52.3568 25.897 56.0162 25.9234 56.0427C25.9499 56.0691 29.1535 53.7696 33.0214 50.9503C38.8109 46.7292 40.2128 45.8158 40.8647 45.8158C41.708 45.8158 41.9694 45.9917 51.3623 52.8469C53.8362 54.6533 55.8744 56.0738 55.8744 55.9883C55.8744 55.9027 54.6825 52.181 53.2293 47.742C51.7761 43.3031 50.5844 39.4351 50.5844 39.1846C50.6192 38.8293 50.7474 38.4895 50.9562 38.1998C51.1615 37.915 54.415 35.4349 58.1865 32.6872L65.0449 27.6912L56.3132 27.5715C49.9714 27.4843 47.4446 27.3692 47.0525 27.1498C46.4301 26.7982 46.2481 26.2987 43.2483 17.0505L40.8787 9.74867L40.4586 11.0338C40.2268 11.7417 39.0023 15.5133 37.7327 19.4357L37.7483 19.4123ZM18.8924 76.6692V109.698H62.8495V74.6823L48.9055 64.8101C41.2427 59.3847 34.9133 54.938 34.8542 54.938C34.7951 54.938 32.3446 56.6884 29.4086 58.8278C22.5144 63.8486 22.5409 63.8315 21.7707 63.8315C21.3154 63.7942 20.8811 63.6241 20.5216 63.3423C20.162 63.0605 19.893 62.6792 19.7481 62.246C19.6361 61.7979 20.2413 59.6275 21.8859 54.5833C23.1462 50.7153 24.1793 47.4915 24.1793 47.4262C24.1793 47.3048 19.135 43.6547 18.967 43.6547C18.9281 43.6547 18.8955 58.5228 18.8955 76.6832L18.8924 76.6692ZM4.7197 116.903V119.786H77.0221V114.022H4.7197V116.905V116.903Z" fill="#FFBC00"/>
</svg>
